<mxfile host="Electron" agent="Mozilla/5.0 (Windows NT 10.0; Win64; x64) AppleWebKit/537.36 (KHTML, like Gecko) draw.io/28.0.4 Chrome/138.0.7204.97 Electron/37.2.1 Safari/537.36" scale="1.5" border="0" version="28.0.4">
  <diagram name="Page-1" id="ebQjVzU91OkPXuFwU88t">
    <mxGraphModel dx="1284" dy="907" grid="1" gridSize="10" guides="1" tooltips="1" connect="1" arrows="1" fold="1" page="1" pageScale="1" pageWidth="1100" pageHeight="1700" math="0" shadow="0">
      <root>
        <mxCell id="0" />
        <mxCell id="1" parent="0" />
        <mxCell id="fbcHfSkknigwFqv8QvJB-8" style="edgeStyle=orthogonalEdgeStyle;rounded=0;orthogonalLoop=1;jettySize=auto;html=1;entryX=0;entryY=0.5;entryDx=0;entryDy=0;" parent="1" source="kRqdh9ee5JRcNYlr1lat-1" target="kRqdh9ee5JRcNYlr1lat-9" edge="1">
          <mxGeometry relative="1" as="geometry" />
        </mxCell>
        <mxCell id="kRqdh9ee5JRcNYlr1lat-1" value="App Connect Enterprise&lt;div&gt;Callable Flows&lt;/div&gt;" style="shape=image;html=1;verticalLabelPosition=bottom;verticalAlign=top;imageAspect=1;aspect=fixed;image=data:image/png,iVBORw0KGgoAAAANSUhEUgAAAHgAAABsCAYAAAChI3ZfAAAAAXNSR0IArs4c6QAAAARnQU1BAACxjwv8YQUAAAAJcEhZcwAADsMAAA7DAcdvqGQAABcpSURBVHhe7V17cBvHff6OAN8iRUKU5AcJQC9biSU7sS3LsgBKnsS1JM+4qRvZE5Ee23+0lt3GqZuZTERnIrGNKE87GsWexI/2DzOx6FSWp0mno0eiJlII2pL8rOVnRT0AiLIsSgQpkQBfAK5/7O3d3t7hbvE4kqL1YQ6HW2APuP32+/1++7iFJMuyjKuYtijiE65ieuEqwdMcVwme5rhK8DTHVYKnOa4SPM0hfdWaSdH+NJ8Eb+30refTjuCOD0YQHUgj2p9CtD+FyICMaCwFQALYK5Ulbk+I9tW64K0tgrfWhcB8F3yeoiu6AlzRBIfCY4gOpNAVHkcoPI5oP0skQ6jhWIIEQJYBCRJkAJJM9/Ts+s8HFrix4bZiBBe44PVcOYRfcQR3fDiMUHgMXZExRPpThCAZOsLMCCV7Jd2QpqRn+rx6flIxAvPd8HmK8L3bi+HzSFOa8CuC4FBkFK8dG0YoMqb5UAMxmRSrTzdTLD3Wn8/6PPTY63Gh6XY3NixzT0mipzTBHccS6DiWQCg8al7Q0NSmEsaaXp2iBQhjzqe9Z048e35qQQILXNh0bym8U0jVU5LgjmNxbOsaRGQgJUYYeGKMJtb0M0y67nvYCqOWjt15tPcDC1zYsKwYTXe4lQyThylFcCg6io17YogOJE0LLjOhrIJz9cncZ6w+z52fVzL9fGChC5vuLUFgoYuedMIxJQiOXkpi474YQpFRpeA4RXEFJ0SGScXwznRx+QiisTSjXPK2pmB6Pv57jefPlB5Y6MKL3yOme6Ix6QRv3NuHjo+HzEmyKTh1r6aRvE3fKEfQVwIACPrJ3ltjraJofxqR/hQAoOt0El2nkoj0pxCNKSdWS8n895gpWbUgIL9r05oSbLjDPaFETxrBoTMj2Li/TzHHyFhw9FhfcHqFN91cjoCvFEFfiS2RuSB0KonfvDeGzlNJnInRnrAcKiSAwAI3XtxQMmEkTwrB2w4PoO3NAcjI3QQ23VyBlmC1I4RaIXSKqLvj3TFEY2mmAhornsG1MK9f2FCK4EKX40RPKMHRy0ls/P0FhM6MGms/+zqDYjcsrUTT0goEvaVanklE16kkth0YRTSWRrRfcd4wr5C6dJBrDSx0Oa7mCSM41DOMta+fIwd8TQcNbiTTZknTkhloCVTDO3Pymx1miPanse3AKEInkqQjxs4nK0TLAHy1EvZ8v9wxkieE4FDPMNa9cS5zjdbVbPqehJaVM9G0pHLKEssj2p/GswdGETqRUom2VDJz3R/91BmSHSc41DOMtW98QQ6YC9PVbOibJcGGMmxaORPBhjLubFcGQieTCtFJUyWbuyUJL2woQdPywlZmRwnu+OwyNh64kLnmqt+svX7p3jo0LZlB37ii0fHuOJ79A/HRptfNKJgSvWlNMX68ppieIm84RvDOzy5j44Hz1hemHktobCjD3gevVfNPF0T703jiP4bRdTJlULLqk8EqGdi0tqRgJDtCcOjsMNb9toe7oEwES2i5sxabVtTozjHd8OyBUXS8M046TgwVXDmGRvQL3yuMuS44waGzCaz9bY/5BTB7WoP3rb8Owfpy3TmmK0Ink3hy1wgifUrXqJVPhlSQwKugBEcGx7Hk16chQ2+KWPNDCfZWu7Hvr6+Htzr/WiqCcE8M4TN9CPfEEOmJAQB89R746z3wN8yCv97DZ3EE0f407nsxIaRkr0fCnr8vy4vkghEcGRzHTb8+aTA1+h9NXvuqivHJYz6a1TGEe2L41e6jaN99BGGF1Ezw13vw6Po78cj65Y6THY2lcd9LCYOS9a6sMO3kghG89r/OIHQ2oSUw4T9AOzKAxusrsPeB67XPOQBK7JYde/m3bEGJ3vz0Wv6tgmNp25C1kpV9Pj1eBSG47d2LaHvnovYDdT9W8ynB68qx74F6+iFHcOhwN+5+6Hk+OWtMFNFL24YMSjbzyZvW5BZZ5z2vJDI4jrZ3L5BfJgGQJEAiO3bvqy52nNzWHfsKQi4UK9C++whad+zj3yoo9jxRAd+sIqasSPlRr0Zfb9uvROBZIm+C1/13GDJkALK6h6y8Vva+Kjf2fsdZs9y6Y19OJtkK4Z4YtuzY6yjJ3toi7NlYAa9HMpSjWp7Kdt8vhrMmOS+C2967gMhQEhKnWk3JJP2lb10DX3X25kUUhw53F5xcFo6T7CnCiw+VGZRMyxUgZRrtl/Ha23T8XAw5ExwZHMfW93qZGkahr3Uty+oQvL6Ceb+wCPfECmaWrdC++wgOHe7mkwuGwAI3NtxenEHBUMtz2/6xrFScc5C1dk8YoS/iTEBljAKD11Zg3196dfkKjbsfel644P31HqxesQj++lnw1Xvw5yPdCPfEhPM/un45XtnezCcXFPe9lEDXCetJh4GFLuz5O7GBmJwIDp2LY82e07ofwLfn/FUl+KRpIZ+1oBCNmP31HryyvRmrVyzi3wIAtO8+itYde23bygBwcNdTGc9TCET701j3YhxnYnLmvmsZ+OinlULNppxM9MbOs5AUH0FdLeuDJUlC02Ln+5Z/9cZRPsmAR9cvx+m3Wi1JeXT9chx8/QfY8vQ6/i0DWn/unC+GEnQ1LyvhypPzyRLwxG9G+aymyJrgtg96ER4aVX0E9RSazwAC11Wg5bY6LmfhYWdaqXJF4K/34JH1yy0rAgCEz/TxSQXHj+8phbfWKqoGuk4k0fH2OJ/VgKwJ7uju19UsqmK2xr28+jo+W8HRvvuorUkVJZfCX+/B5n+w7tjIxmfngz1PVMLncZkqmar4tXfsI+qsCI4MjSE8NErqktLGVffKo+W22fBVOdckoqADBpnwqIAazbB6xSLbfH8+coJPKji8tUXYsKxYLVczJYcEVJwVwW3/e16nWv1GfETLrbP5bI4g3GNtKlfdaU2SFVbnkbeQ2HRPKXyeIkM/A+uTX3vXWsXCBEeGxrDzRIypQ/oHIE8YuU5j1Z3W0f+hI86baIoNt5cwyoVByV0nksqUIHMIE9xxsh+gLoBRLD2GBLTcOofP5hjs/G8+Q37+hll8kg75nDtbNN1eDJ+nSFEs31ohhFj5YmGCd57o07Rr4n9bvjlx5MLhQp6IIEoU3toiBBa41HKmD50vPpknwZGhMUTiYya1R6tFTYucb/ey8NdbqyyfQOjPNibY7rsLjabbSxjLSawny0HXyVRGMy1EcMdJzRySWkP35Nk3oxi+GeQuvomCnZ9s332ETxKGnYJ9DloPMwTmu9GgtIu1UtcrOVOwJUTw1mPnGMXqa48kAc2LavksjsPOT4Z7Ynjshzv5ZFs89sOdtv7drhnlBJo5FYPp2ZIkYNsfzHu2bAmODI0Zagu/b/nGXD6b46ADB1Y4dLjbVo0sDh3uRvtu6+7PRydgzpYZVs53K6Vt/gBkUzNtS3DH6T6l2hDF0o0q2F81saaZxSPfXc4n6UBVLDKWKzobJJ/2dT4IznfD63GR4tf5Y82qhk6SG9hZ2BJMQGoI+5oeNS2cePNMIdLrRGdlzLtrM9p3H9UpmkzLOYq7H3peaMIAmadlXamcRNNtJZAlqldWu+S565TRD9sOF1a+9r7CrX5ckg5j7f+LhQheM3n3EokOGbLw13ts/awZnB4qtEPXqSTu+/chvdZUXiQE5ruxZ6N+coWlgiPxUW1+FVNf2NeTSS4UFYsM87HIhVwRa+E0AvPdaKhRommTvojQyXHDYquWBEcztH2pT/ZNov9lITLMlw9Wr1iEg7ue4pMnBRoXhBDeH/OdHpYEd/YOMv6XblBfNy+Y+GjSDP56j23AlQ+cPHe2CMx3EwsqKZaU88k8LAmWwIZs+ihak/PUQKtAkJQrnDx3tgjMdxMFQ1Ey9Cp+87Q+krYkuPP8Za1mcHOdARmBuZV8lklB6459OflVUeTaaeIEvDVFuhhIfTC+mIUlwdTv6u2+dtw4t4rPMeGgzSCnkW2niVPw1ZLV+iTFeOq5kQydHZYEd164zNQW8kpbBsdo7ycDIsqi013ZWR5+5dbRLU+vUzcrhHtijk+4E4G3tghQ/C4khRNoPjkyoDfRlu3gyl3vaAfc3YK+yhJ8ev9S7f0c8cHFYbiLJPQOJzEwmkK5uwgSgBnFRah0F6G21IWqEhcq3BLKXEUoYtx+++6jtgT76z04/VYrn2wANcN2KqUVZTKxZHs/mVYL7a5Ndr3rS9u0kT1LBRvsO2vnM1YLe3SeG0L78Rh+9v55/Gd4AHujl/HZwAgGx1OIj+tNzHhaxmgqjfG0jDRXF0WCH9GJdyIT7iD4nY5DVpTLxUWUIxYZCY7ERw1tLHbLJYD+fc9l/OS9c3j584s43BtHbCzJRIOaz1dh8R0igVW2E+9Wr1hkq86pEHD5ask9TNrG+WQGGQmGLlbTH8mQ4a0U7+Q4mxjHk2+dwb9+dB4fxchN4rwn1/b2pkE0sNps41fNIJJnagRcGjPEJ5PbH/jysyRYr1j9+KOVulg892kv7v19Nz6IJZhoT8uu1jx6zB5kgIiCtjy9LqdhPZHJ8pMdcEUG0noFgylXUQX7Kks1u84/ZBnRuPkAM4v7/3QCOz790qB+qErVH5FX2rMZRNTjr/fkdWe+SL+zyNixc6Dq1TYZbB+FhowEA6R28L6XbIwETRCJj2HNH7tx+MKQ6iN0NY6xAgYl20hYRL12CrTDlA+41DI1litfdJYEm6uY1JdIfIT/uIrHj4QROk/a0AS0plGwitVrWHuWUerS/9p//rl9YCWiPhFM5YCLLKLOKhgmZUxgSTDUimIctYAkkeFEDmv+eByh3kFjrVIlquzUvYSlnnJ8+7oqfHdeDdbPq8HahmoEr52Bm2rLcENNKerK3Pjy3AD+ScDv5ateFlM24OLLlTn2cX/nY0Mwr179g8fWj79AZy/pv+bbaHqNkrR766vxj0vmYF1DNRbXlGFGsfnPKXVJ2PijDj7ZgFwDq0yYigFXdCDFlCerYraMNZiXqILGOdWGyJlVMRtohXoH0fbxWUbhili5vADwtZpy/NtdPtx7fTVqSuyX5BdRSb6BVSaImPyJDLgiAykDJ6yafdwfaVoSDLVO6OsF6RWTEU5oBD/+zmnlS5TPKmSqe+U8W2+9Hj+5JbtVZUX8nJ3SckW2AVe4J6ZuTiA6kOL4oItrkbIPzNPf2WlJcKCumrygDWjaoIYMWQK6LgwCALZ+chbh+AhjNPQmhBqO7csasKQmu4VHRXqsVq1YhJXLF2I8LVtuvPkShWjAJXm/j3l3bVY3eixyDaKIXuJNNHQmmoclwb7KUiYYIk+qiQYQURTc9qlmmjUTre8YeWG5H7fUZrfajmiPVfv2ZqRkIJFMW27DSeO8YVGIBFxmoNdw94PPCU3ftUNXZDyDiSYJAX8WCm6sm6nTpK5TGzI6L1zC4++c0qUZH8CTN87BrZ7syIWgaaaBVZlLwkhSRnw8zW2yug2MppEyVnIhiARcVqBEz7trc15q7gyTG/B1FlLW9sFsTDQUFbOOXK9oIHTxMknXKpFua6gowZM3ZHfnQ1iZr5xtYOUpc2EsLSORZDe9ii+NGieHi0Ik4LJDuCeGux98zvbazBAdSDEW0rgnkwH0sCW4sa5aZ+NlMD4ZMsLxEZKuTM/VdEv2671izRbaaUD9loh6eUUVF0kodxchnkxrG6fo/jwILlQTjF5rLkretGoGAv5ieGtcisdVOIExwAJsBvwB4NVoLx5//wQkYqHJhHeQAWayVz7IDDhTX39jVTneX2M/KSCXdSYzTWUdTcn4pH8EY7wtVg8lfHN2maGXTAS5TLK3QqZrEAX5J/RxdIXHEBlIoemWcmxarZ8nZ0swAFT87k3yQpOvjkj1GAzRMrBlaQN+9DXrFXdyIRcATr/VmlFR718cJkrNcGVfry3DtZXZrzSfzap6onD6bglbEw0TP2y28b5ZkoCVs60n5YlGyTzseqxml7n1ZjqZRjwpq9uXw8Z7eOwgEhOAuetRlDSne8GECG72ssszEP+qbVTMxnbyyjprgkX8rBnsVtgpdUlIjPPNpBTZxlPoH8neD9vd9Q+l4p1+qxUHdz2Fg7uesrQyFE4vrCZEcHDWTE6x3IIgqnK1drK/0v4PJEUUYQa7fHPK3SiSYFTwOFHwxZHsFWz3na9sbzZ0lfrrPTj4+g90aTzCDi+sJkRwY91M+CrI0CFVrqEtBhKF0Ye3wnpKTz59tyJdgYkUH0mnEE+mEFcUnS3svi9TTxc12ZMFIYKhmGmqUt7/mvlin42C7Vaqs4OdaRtJGdvAdPsykZ2C7ci1I9BuYTW78+cDYYKfucELX0Wp3vcCBp8sQyFb9xkj7BZRsYPdGh2JZFpVLGumE8k0BAawsoJdZbOLGZyEMMFQTDWvWFOfLAGR4TE+uw52BNnBLng5mxjTVJtKI6EoOp5MYzhpXfl42H2XnR+1c0d2588HWRHc1DDH1P8a0mTST20Fv3LrSC7I5O8o+kaSjGpTxP+qPjiFRCp7H2xnhs16psKCfzdgd+58kBXBjbNq8HDDXE6tmX0yHW3KBL6rURR2IzsXRpIYTqYxnEpjOCUrGxlNGk6mMS+HG9dF/OjdDz6nLvrSumMf5t212VLZEKis+SIrggGgqYEOHOh9rwYtbWekl0k3QmSclccr25ttlX+sf1ivYJ0fTqO6JOvLxiMCv5MOkmzZsVe4A8fpm8uzvtLGWTPhqywzqNXMJ4cuXuazG7BZ4M4+ii1PrxOqEK9096nNpERSVptGxBensbhW7A8tWPgdWGEnmx6vXJE1wQDw8i3kRxHdZvbJnRcH8GrUWsV0yO/grqcyKtOv3CHIdySYob27DwnF7+r2ylZVXISbPdkTDKUyZvqNuUBkKlC+EBpsMMPW41FsPR5hrLP5IERjXQ32B25S89mBRqSRnhhW3bkwqxr+RWIc9//xBPcbJEAxLLIs4fHFs/A3i3OP4MM9Mcy7azOfnDWcHmSgyJlgAFj8p7cRTYzqCDUj+pnFXjyzuEHL6BB++XkvfvnZBXKg+4NHqL+nfZUPd8zOfnYJCxpQ8VGzKCbyHuOcTDTFww1zTfyvcdv6+RnbiDpf7I70418+/hLxVBpxxdfGU8T30uPaMlfe5ILpYxaNHSj89R4c3PXUhJGLfBUMAFuPR/Cz4xHtTnP1j5z0f5fqqyjF/sBSpTessHizdwjfOdit++Mo1oIA5Df87tsLsLLAC8eEe2Jo3bHXsjODxBliAWKhkTfBAPC1P72tKdTCJ/vKC09yqHcQa/7nODnI4CIAiSw58cDX1XyFRpj5C3mKyR5oQKEIjgyPYM3hYwgnRhgFZS7wl29dpI5Q5YOtH3+Bto++MLUYAPP9AD79q5smfNHyqYCCEAyG5MiwfdAFWYK/ohSbFjfkRPTO0xfR9sk5RIZYq2H2PeT4mZuvRcvN16j5v0ooGMEAsLU7glfPnEdEUTJVlJXCGutqEKyrRrBuJnyVpRnJfjV8AV29g+i8MKgQqyfSzPfLMtA4txr775lcMzmZKCjBUEjeeea8kE82U17j7GrtWFkQNRwf1WZvmp6HM8nKPjinCvu//dUlF04QDACdfQN4/MPjwj7ZkK6mMeQJKpZ+X3BuNfZ/6wYlw1cXjhCMHHyyzpRDbN51pvMFZ1dh/7duVD701UZeHR1W8JWXYf+Km9FcP0cdI+b7rPm+a3XPL/DFLfRlSGMeLUuuu0ouA8cUzIKY7G5EEiOa+kyUl0mR4E2yomyyJ8r2VZbh5WXzEJxjPVX3q4YJIZjibz/8P4T6LmsLuFgQqktX08xN9cvL5uNh//T4Y8xCY0IJpth6PIqdPecVos0I5nwyDaIgqT652TcHwboqNF8l1hKTQjBFZ98lhPouofPiAKKJMYTjI0SvGZo9D3tnIzB7JhpnV2dsL1+FHpNKsBkiiVHiqwH4KsjA/FUyc8eUI/gqCov/B90y47ZeZ8BfAAAAAElFTkSuQmCC;" parent="1" vertex="1">
          <mxGeometry x="680" y="303" width="68" height="61" as="geometry" />
        </mxCell>
        <mxCell id="fbcHfSkknigwFqv8QvJB-7" style="edgeStyle=orthogonalEdgeStyle;rounded=0;orthogonalLoop=1;jettySize=auto;html=1;entryX=0.5;entryY=0;entryDx=0;entryDy=0;exitX=1;exitY=0.5;exitDx=0;exitDy=0;" parent="1" source="kRqdh9ee5JRcNYlr1lat-3" target="kRqdh9ee5JRcNYlr1lat-1" edge="1">
          <mxGeometry relative="1" as="geometry" />
        </mxCell>
        <mxCell id="kRqdh9ee5JRcNYlr1lat-3" value="&lt;font style=&quot;color: rgb(0, 0, 0);&quot;&gt;Switch Server&lt;/font&gt;" style="image;aspect=fixed;perimeter=ellipsePerimeter;html=1;align=center;shadow=0;dashed=0;fontColor=#4277BB;labelBackgroundColor=default;fontSize=12;spacingTop=3;image=img/lib/ibm/blockchain/communication.svg;" parent="1" vertex="1">
          <mxGeometry x="620" y="154" width="60" height="60" as="geometry" />
        </mxCell>
        <mxCell id="kRqdh9ee5JRcNYlr1lat-9" value="&lt;font style=&quot;color: rgb(0, 0, 0);&quot;&gt;Database&lt;/font&gt;" style="shape=datastore;whiteSpace=wrap;html=1;labelPosition=center;verticalLabelPosition=bottom;align=center;verticalAlign=top;fontColor=#C74634;fillColor=#C74634;" parent="1" vertex="1">
          <mxGeometry x="810" y="303" width="60" height="60" as="geometry" />
        </mxCell>
        <mxCell id="kRqdh9ee5JRcNYlr1lat-14" value="" style="endArrow=none;html=1;rounded=0;strokeColor=light-dark(#000000,#FFFFFF);strokeWidth=3;dashed=1;" parent="1" edge="1">
          <mxGeometry width="50" height="50" relative="1" as="geometry">
            <mxPoint x="340" y="256" as="sourcePoint" />
            <mxPoint x="880" y="256" as="targetPoint" />
          </mxGeometry>
        </mxCell>
        <mxCell id="kRqdh9ee5JRcNYlr1lat-29" value="&lt;b&gt;ACEaaS&lt;/b&gt;" style="text;html=1;align=center;verticalAlign=middle;whiteSpace=wrap;rounded=0;" parent="1" vertex="1">
          <mxGeometry x="820" y="179" width="60" height="30" as="geometry" />
        </mxCell>
        <mxCell id="kRqdh9ee5JRcNYlr1lat-31" value="&lt;b&gt;On-prem&lt;/b&gt;" style="text;html=1;align=center;verticalAlign=middle;whiteSpace=wrap;rounded=0;" parent="1" vertex="1">
          <mxGeometry x="820" y="266" width="60" height="30" as="geometry" />
        </mxCell>
        <mxCell id="fbcHfSkknigwFqv8QvJB-6" style="edgeStyle=orthogonalEdgeStyle;rounded=0;orthogonalLoop=1;jettySize=auto;html=1;entryX=0;entryY=0.5;entryDx=0;entryDy=0;exitX=1;exitY=0.5;exitDx=0;exitDy=0;" parent="1" source="X6fI_ib9up5Lk2iyJdlD-3" target="kRqdh9ee5JRcNYlr1lat-3" edge="1">
          <mxGeometry relative="1" as="geometry">
            <mxPoint x="550" y="190" as="sourcePoint" />
          </mxGeometry>
        </mxCell>
        <mxCell id="fbcHfSkknigwFqv8QvJB-28" value="" style="edgeStyle=orthogonalEdgeStyle;rounded=0;orthogonalLoop=1;jettySize=auto;html=1;exitX=1;exitY=0.25;exitDx=0;exitDy=0;strokeColor=light-dark(#0000FF,#FF7777);strokeWidth=3;" parent="1" source="fbcHfSkknigwFqv8QvJB-21" edge="1">
          <mxGeometry relative="1" as="geometry">
            <mxPoint x="490" y="240" as="targetPoint" />
          </mxGeometry>
        </mxCell>
        <mxCell id="fbcHfSkknigwFqv8QvJB-21" value="Pipeline" style="rounded=1;whiteSpace=wrap;html=1;fontSize=17;fontStyle=0;labelPosition=center;verticalLabelPosition=top;align=center;verticalAlign=bottom;" parent="1" vertex="1">
          <mxGeometry x="213" y="360" width="316" height="100" as="geometry" />
        </mxCell>
        <mxCell id="fbcHfSkknigwFqv8QvJB-22" value="ace-demo-pipeline&lt;div&gt;source repo&lt;/div&gt;" style="dashed=0;outlineConnect=0;html=1;align=center;labelPosition=center;verticalLabelPosition=bottom;verticalAlign=top;shape=mxgraph.weblogos.github;fontSize=17;fontStyle=0" parent="1" vertex="1">
          <mxGeometry x="60" y="366" width="75" height="75" as="geometry" />
        </mxCell>
        <mxCell id="fbcHfSkknigwFqv8QvJB-23" value="Build" style="rounded=0;whiteSpace=wrap;html=1;fontSize=17;fillColor=#f5f5f5;fontColor=#333333;strokeColor=#666666;fontStyle=0" parent="1" vertex="1">
          <mxGeometry x="225" y="380" width="90" height="60" as="geometry" />
        </mxCell>
        <mxCell id="fbcHfSkknigwFqv8QvJB-24" value="Test" style="rounded=0;whiteSpace=wrap;html=1;fontSize=17;fillColor=#f5f5f5;fontColor=#333333;strokeColor=#666666;fontStyle=0" parent="1" vertex="1">
          <mxGeometry x="325" y="380" width="90" height="60" as="geometry" />
        </mxCell>
        <mxCell id="fbcHfSkknigwFqv8QvJB-25" value="Deploy" style="rounded=0;whiteSpace=wrap;html=1;fontSize=17;fillColor=#f5f5f5;fontColor=#333333;strokeColor=#666666;fontStyle=0" parent="1" vertex="1">
          <mxGeometry x="424" y="380" width="90" height="60" as="geometry" />
        </mxCell>
        <mxCell id="fbcHfSkknigwFqv8QvJB-26" value="" style="edgeStyle=elbowEdgeStyle;elbow=horizontal;endArrow=classic;html=1;curved=0;rounded=0;endSize=8;startSize=8;entryX=0;entryY=0.5;entryDx=0;entryDy=0;strokeWidth=2;fontStyle=0;fontSize=17;" parent="1" target="fbcHfSkknigwFqv8QvJB-21" edge="1">
          <mxGeometry width="50" height="50" relative="1" as="geometry">
            <mxPoint x="148" y="410" as="sourcePoint" />
            <mxPoint x="183" y="520" as="targetPoint" />
          </mxGeometry>
        </mxCell>
        <mxCell id="fbcHfSkknigwFqv8QvJB-27" value="" style="edgeStyle=elbowEdgeStyle;elbow=horizontal;endArrow=classic;html=1;curved=0;rounded=0;endSize=8;startSize=8;exitX=1;exitY=0.5;exitDx=0;exitDy=0;strokeWidth=3;fontStyle=0;entryX=0;entryY=0.5;entryDx=0;entryDy=0;fillColor=#eeeeee;strokeColor=light-dark(#0000FF,#FF7777);" parent="1" source="fbcHfSkknigwFqv8QvJB-21" target="kRqdh9ee5JRcNYlr1lat-1" edge="1">
          <mxGeometry width="50" height="50" relative="1" as="geometry">
            <mxPoint x="608" y="600" as="sourcePoint" />
            <mxPoint x="583" y="410" as="targetPoint" />
          </mxGeometry>
        </mxCell>
        <mxCell id="olhQj9BqujZaTJc8Buyc-3" value="" style="edgeStyle=elbowEdgeStyle;elbow=horizontal;endArrow=classic;html=1;curved=0;rounded=0;endSize=8;startSize=8;strokeWidth=2;fontStyle=0;fontSize=17;dashed=1;dashPattern=1 2;" parent="1" target="fbcHfSkknigwFqv8QvJB-22" edge="1">
          <mxGeometry width="50" height="50" relative="1" as="geometry">
            <mxPoint x="100" y="250" as="sourcePoint" />
            <mxPoint x="223" y="420" as="targetPoint" />
          </mxGeometry>
        </mxCell>
        <mxCell id="olhQj9BqujZaTJc8Buyc-4" value="BAR file&lt;div&gt;export&lt;/div&gt;" style="text;html=1;align=left;verticalAlign=middle;whiteSpace=wrap;rounded=0;" parent="1" vertex="1">
          <mxGeometry x="110" y="296" width="90" height="30" as="geometry" />
        </mxCell>
        <mxCell id="X6fI_ib9up5Lk2iyJdlD-1" value="App Connect Designer&lt;div&gt;Flow Development&lt;/div&gt;" style="shape=image;html=1;verticalLabelPosition=bottom;verticalAlign=top;imageAspect=1;aspect=fixed;image=data:image/png,iVBORw0KGgoAAAANSUhEUgAAAHgAAABsCAYAAAChI3ZfAAAAAXNSR0IArs4c6QAAAARnQU1BAACxjwv8YQUAAAAJcEhZcwAADsMAAA7DAcdvqGQAABcpSURBVHhe7V17cBvHff6OAN8iRUKU5AcJQC9biSU7sS3LsgBKnsS1JM+4qRvZE5Ee23+0lt3GqZuZTERnIrGNKE87GsWexI/2DzOx6FSWp0mno0eiJlII2pL8rOVnRT0AiLIsSgQpkQBfAK5/7O3d3t7hbvE4kqL1YQ6HW2APuP32+/1++7iFJMuyjKuYtijiE65ieuEqwdMcVwme5rhK8DTHVYKnOa4SPM0hfdWaSdH+NJ8Eb+30refTjuCOD0YQHUgj2p9CtD+FyICMaCwFQALYK5Ulbk+I9tW64K0tgrfWhcB8F3yeoiu6AlzRBIfCY4gOpNAVHkcoPI5oP0skQ6jhWIIEQJYBCRJkAJJM9/Ts+s8HFrix4bZiBBe44PVcOYRfcQR3fDiMUHgMXZExRPpThCAZOsLMCCV7Jd2QpqRn+rx6flIxAvPd8HmK8L3bi+HzSFOa8CuC4FBkFK8dG0YoMqb5UAMxmRSrTzdTLD3Wn8/6PPTY63Gh6XY3NixzT0mipzTBHccS6DiWQCg8al7Q0NSmEsaaXp2iBQhjzqe9Z048e35qQQILXNh0bym8U0jVU5LgjmNxbOsaRGQgJUYYeGKMJtb0M0y67nvYCqOWjt15tPcDC1zYsKwYTXe4lQyThylFcCg6io17YogOJE0LLjOhrIJz9cncZ6w+z52fVzL9fGChC5vuLUFgoYuedMIxJQiOXkpi474YQpFRpeA4RXEFJ0SGScXwznRx+QiisTSjXPK2pmB6Pv57jefPlB5Y6MKL3yOme6Ix6QRv3NuHjo+HzEmyKTh1r6aRvE3fKEfQVwIACPrJ3ltjraJofxqR/hQAoOt0El2nkoj0pxCNKSdWS8n895gpWbUgIL9r05oSbLjDPaFETxrBoTMj2Li/TzHHyFhw9FhfcHqFN91cjoCvFEFfiS2RuSB0KonfvDeGzlNJnInRnrAcKiSAwAI3XtxQMmEkTwrB2w4PoO3NAcjI3QQ23VyBlmC1I4RaIXSKqLvj3TFEY2mmAhornsG1MK9f2FCK4EKX40RPKMHRy0ls/P0FhM6MGms/+zqDYjcsrUTT0goEvaVanklE16kkth0YRTSWRrRfcd4wr5C6dJBrDSx0Oa7mCSM41DOMta+fIwd8TQcNbiTTZknTkhloCVTDO3Pymx1miPanse3AKEInkqQjxs4nK0TLAHy1EvZ8v9wxkieE4FDPMNa9cS5zjdbVbPqehJaVM9G0pHLKEssj2p/GswdGETqRUom2VDJz3R/91BmSHSc41DOMtW98QQ6YC9PVbOibJcGGMmxaORPBhjLubFcGQieTCtFJUyWbuyUJL2woQdPywlZmRwnu+OwyNh64kLnmqt+svX7p3jo0LZlB37ii0fHuOJ79A/HRptfNKJgSvWlNMX68ppieIm84RvDOzy5j44Hz1hemHktobCjD3gevVfNPF0T703jiP4bRdTJlULLqk8EqGdi0tqRgJDtCcOjsMNb9toe7oEwES2i5sxabVtTozjHd8OyBUXS8M046TgwVXDmGRvQL3yuMuS44waGzCaz9bY/5BTB7WoP3rb8Owfpy3TmmK0Ink3hy1wgifUrXqJVPhlSQwKugBEcGx7Hk16chQ2+KWPNDCfZWu7Hvr6+Htzr/WiqCcE8M4TN9CPfEEOmJAQB89R746z3wN8yCv97DZ3EE0f407nsxIaRkr0fCnr8vy4vkghEcGRzHTb8+aTA1+h9NXvuqivHJYz6a1TGEe2L41e6jaN99BGGF1Ezw13vw6Po78cj65Y6THY2lcd9LCYOS9a6sMO3kghG89r/OIHQ2oSUw4T9AOzKAxusrsPeB67XPOQBK7JYde/m3bEGJ3vz0Wv6tgmNp25C1kpV9Pj1eBSG47d2LaHvnovYDdT9W8ynB68qx74F6+iFHcOhwN+5+6Hk+OWtMFNFL24YMSjbzyZvW5BZZ5z2vJDI4jrZ3L5BfJgGQJEAiO3bvqy52nNzWHfsKQi4UK9C++whad+zj3yoo9jxRAd+sIqasSPlRr0Zfb9uvROBZIm+C1/13GDJkALK6h6y8Vva+Kjf2fsdZs9y6Y19OJtkK4Z4YtuzY6yjJ3toi7NlYAa9HMpSjWp7Kdt8vhrMmOS+C2967gMhQEhKnWk3JJP2lb10DX3X25kUUhw53F5xcFo6T7CnCiw+VGZRMyxUgZRrtl/Ha23T8XAw5ExwZHMfW93qZGkahr3Uty+oQvL6Ceb+wCPfECmaWrdC++wgOHe7mkwuGwAI3NtxenEHBUMtz2/6xrFScc5C1dk8YoS/iTEBljAKD11Zg3196dfkKjbsfel644P31HqxesQj++lnw1Xvw5yPdCPfEhPM/un45XtnezCcXFPe9lEDXCetJh4GFLuz5O7GBmJwIDp2LY82e07ofwLfn/FUl+KRpIZ+1oBCNmP31HryyvRmrVyzi3wIAtO8+itYde23bygBwcNdTGc9TCET701j3YhxnYnLmvmsZ+OinlULNppxM9MbOs5AUH0FdLeuDJUlC02Ln+5Z/9cZRPsmAR9cvx+m3Wi1JeXT9chx8/QfY8vQ6/i0DWn/unC+GEnQ1LyvhypPzyRLwxG9G+aymyJrgtg96ER4aVX0E9RSazwAC11Wg5bY6LmfhYWdaqXJF4K/34JH1yy0rAgCEz/TxSQXHj+8phbfWKqoGuk4k0fH2OJ/VgKwJ7uju19UsqmK2xr28+jo+W8HRvvuorUkVJZfCX+/B5n+w7tjIxmfngz1PVMLncZkqmar4tXfsI+qsCI4MjSE8NErqktLGVffKo+W22fBVOdckoqADBpnwqIAazbB6xSLbfH8+coJPKji8tUXYsKxYLVczJYcEVJwVwW3/e16nWv1GfETLrbP5bI4g3GNtKlfdaU2SFVbnkbeQ2HRPKXyeIkM/A+uTX3vXWsXCBEeGxrDzRIypQ/oHIE8YuU5j1Z3W0f+hI86baIoNt5cwyoVByV0nksqUIHMIE9xxsh+gLoBRLD2GBLTcOofP5hjs/G8+Q37+hll8kg75nDtbNN1eDJ+nSFEs31ohhFj5YmGCd57o07Rr4n9bvjlx5MLhQp6IIEoU3toiBBa41HKmD50vPpknwZGhMUTiYya1R6tFTYucb/ey8NdbqyyfQOjPNibY7rsLjabbSxjLSawny0HXyVRGMy1EcMdJzRySWkP35Nk3oxi+GeQuvomCnZ9s332ETxKGnYJ9DloPMwTmu9GgtIu1UtcrOVOwJUTw1mPnGMXqa48kAc2LavksjsPOT4Z7Ynjshzv5ZFs89sOdtv7drhnlBJo5FYPp2ZIkYNsfzHu2bAmODI0Zagu/b/nGXD6b46ADB1Y4dLjbVo0sDh3uRvtu6+7PRydgzpYZVs53K6Vt/gBkUzNtS3DH6T6l2hDF0o0q2F81saaZxSPfXc4n6UBVLDKWKzobJJ/2dT4IznfD63GR4tf5Y82qhk6SG9hZ2BJMQGoI+5oeNS2cePNMIdLrRGdlzLtrM9p3H9UpmkzLOYq7H3peaMIAmadlXamcRNNtJZAlqldWu+S565TRD9sOF1a+9r7CrX5ckg5j7f+LhQheM3n3EokOGbLw13ts/awZnB4qtEPXqSTu+/chvdZUXiQE5ruxZ6N+coWlgiPxUW1+FVNf2NeTSS4UFYsM87HIhVwRa+E0AvPdaKhRommTvojQyXHDYquWBEcztH2pT/ZNov9lITLMlw9Wr1iEg7ue4pMnBRoXhBDeH/OdHpYEd/YOMv6XblBfNy+Y+GjSDP56j23AlQ+cPHe2CMx3EwsqKZaU88k8LAmWwIZs+ihak/PUQKtAkJQrnDx3tgjMdxMFQ1Ey9Cp+87Q+krYkuPP8Za1mcHOdARmBuZV8lklB6459OflVUeTaaeIEvDVFuhhIfTC+mIUlwdTv6u2+dtw4t4rPMeGgzSCnkW2niVPw1ZLV+iTFeOq5kQydHZYEd164zNQW8kpbBsdo7ycDIsqi013ZWR5+5dbRLU+vUzcrhHtijk+4E4G3tghQ/C4khRNoPjkyoDfRlu3gyl3vaAfc3YK+yhJ8ev9S7f0c8cHFYbiLJPQOJzEwmkK5uwgSgBnFRah0F6G21IWqEhcq3BLKXEUoYtx+++6jtgT76z04/VYrn2wANcN2KqUVZTKxZHs/mVYL7a5Ndr3rS9u0kT1LBRvsO2vnM1YLe3SeG0L78Rh+9v55/Gd4AHujl/HZwAgGx1OIj+tNzHhaxmgqjfG0jDRXF0WCH9GJdyIT7iD4nY5DVpTLxUWUIxYZCY7ERw1tLHbLJYD+fc9l/OS9c3j584s43BtHbCzJRIOaz1dh8R0igVW2E+9Wr1hkq86pEHD5ask9TNrG+WQGGQmGLlbTH8mQ4a0U7+Q4mxjHk2+dwb9+dB4fxchN4rwn1/b2pkE0sNps41fNIJJnagRcGjPEJ5PbH/jysyRYr1j9+KOVulg892kv7v19Nz6IJZhoT8uu1jx6zB5kgIiCtjy9LqdhPZHJ8pMdcEUG0noFgylXUQX7Kks1u84/ZBnRuPkAM4v7/3QCOz790qB+qErVH5FX2rMZRNTjr/fkdWe+SL+zyNixc6Dq1TYZbB+FhowEA6R28L6XbIwETRCJj2HNH7tx+MKQ6iN0NY6xAgYl20hYRL12CrTDlA+41DI1litfdJYEm6uY1JdIfIT/uIrHj4QROk/a0AS0plGwitVrWHuWUerS/9p//rl9YCWiPhFM5YCLLKLOKhgmZUxgSTDUimIctYAkkeFEDmv+eByh3kFjrVIlquzUvYSlnnJ8+7oqfHdeDdbPq8HahmoEr52Bm2rLcENNKerK3Pjy3AD+ScDv5ateFlM24OLLlTn2cX/nY0Mwr179g8fWj79AZy/pv+bbaHqNkrR766vxj0vmYF1DNRbXlGFGsfnPKXVJ2PijDj7ZgFwDq0yYigFXdCDFlCerYraMNZiXqILGOdWGyJlVMRtohXoH0fbxWUbhili5vADwtZpy/NtdPtx7fTVqSuyX5BdRSb6BVSaImPyJDLgiAykDJ6yafdwfaVoSDLVO6OsF6RWTEU5oBD/+zmnlS5TPKmSqe+U8W2+9Hj+5JbtVZUX8nJ3SckW2AVe4J6ZuTiA6kOL4oItrkbIPzNPf2WlJcKCumrygDWjaoIYMWQK6LgwCALZ+chbh+AhjNPQmhBqO7csasKQmu4VHRXqsVq1YhJXLF2I8LVtuvPkShWjAJXm/j3l3bVY3eixyDaKIXuJNNHQmmoclwb7KUiYYIk+qiQYQURTc9qlmmjUTre8YeWG5H7fUZrfajmiPVfv2ZqRkIJFMW27DSeO8YVGIBFxmoNdw94PPCU3ftUNXZDyDiSYJAX8WCm6sm6nTpK5TGzI6L1zC4++c0qUZH8CTN87BrZ7syIWgaaaBVZlLwkhSRnw8zW2yug2MppEyVnIhiARcVqBEz7trc15q7gyTG/B1FlLW9sFsTDQUFbOOXK9oIHTxMknXKpFua6gowZM3ZHfnQ1iZr5xtYOUpc2EsLSORZDe9ii+NGieHi0Ik4LJDuCeGux98zvbazBAdSDEW0rgnkwH0sCW4sa5aZ+NlMD4ZMsLxEZKuTM/VdEv2671izRbaaUD9loh6eUUVF0kodxchnkxrG6fo/jwILlQTjF5rLkretGoGAv5ieGtcisdVOIExwAJsBvwB4NVoLx5//wQkYqHJhHeQAWayVz7IDDhTX39jVTneX2M/KSCXdSYzTWUdTcn4pH8EY7wtVg8lfHN2maGXTAS5TLK3QqZrEAX5J/RxdIXHEBlIoemWcmxarZ8nZ0swAFT87k3yQpOvjkj1GAzRMrBlaQN+9DXrFXdyIRcATr/VmlFR718cJkrNcGVfry3DtZXZrzSfzap6onD6bglbEw0TP2y28b5ZkoCVs60n5YlGyTzseqxml7n1ZjqZRjwpq9uXw8Z7eOwgEhOAuetRlDSne8GECG72ssszEP+qbVTMxnbyyjprgkX8rBnsVtgpdUlIjPPNpBTZxlPoH8neD9vd9Q+l4p1+qxUHdz2Fg7uesrQyFE4vrCZEcHDWTE6x3IIgqnK1drK/0v4PJEUUYQa7fHPK3SiSYFTwOFHwxZHsFWz3na9sbzZ0lfrrPTj4+g90aTzCDi+sJkRwY91M+CrI0CFVrqEtBhKF0Ye3wnpKTz59tyJdgYkUH0mnEE+mEFcUnS3svi9TTxc12ZMFIYKhmGmqUt7/mvlin42C7Vaqs4OdaRtJGdvAdPsykZ2C7ci1I9BuYTW78+cDYYKfucELX0Wp3vcCBp8sQyFb9xkj7BZRsYPdGh2JZFpVLGumE8k0BAawsoJdZbOLGZyEMMFQTDWvWFOfLAGR4TE+uw52BNnBLng5mxjTVJtKI6EoOp5MYzhpXfl42H2XnR+1c0d2588HWRHc1DDH1P8a0mTST20Fv3LrSC7I5O8o+kaSjGpTxP+qPjiFRCp7H2xnhs16psKCfzdgd+58kBXBjbNq8HDDXE6tmX0yHW3KBL6rURR2IzsXRpIYTqYxnEpjOCUrGxlNGk6mMS+HG9dF/OjdDz6nLvrSumMf5t212VLZEKis+SIrggGgqYEOHOh9rwYtbWekl0k3QmSclccr25ttlX+sf1ivYJ0fTqO6JOvLxiMCv5MOkmzZsVe4A8fpm8uzvtLGWTPhqywzqNXMJ4cuXuazG7BZ4M4+ii1PrxOqEK9096nNpERSVptGxBensbhW7A8tWPgdWGEnmx6vXJE1wQDw8i3kRxHdZvbJnRcH8GrUWsV0yO/grqcyKtOv3CHIdySYob27DwnF7+r2ylZVXISbPdkTDKUyZvqNuUBkKlC+EBpsMMPW41FsPR5hrLP5IERjXQ32B25S89mBRqSRnhhW3bkwqxr+RWIc9//xBPcbJEAxLLIs4fHFs/A3i3OP4MM9Mcy7azOfnDWcHmSgyJlgAFj8p7cRTYzqCDUj+pnFXjyzuEHL6BB++XkvfvnZBXKg+4NHqL+nfZUPd8zOfnYJCxpQ8VGzKCbyHuOcTDTFww1zTfyvcdv6+RnbiDpf7I70418+/hLxVBpxxdfGU8T30uPaMlfe5ILpYxaNHSj89R4c3PXUhJGLfBUMAFuPR/Cz4xHtTnP1j5z0f5fqqyjF/sBSpTessHizdwjfOdit++Mo1oIA5Df87tsLsLLAC8eEe2Jo3bHXsjODxBliAWKhkTfBAPC1P72tKdTCJ/vKC09yqHcQa/7nODnI4CIAiSw58cDX1XyFRpj5C3mKyR5oQKEIjgyPYM3hYwgnRhgFZS7wl29dpI5Q5YOtH3+Bto++MLUYAPP9AD79q5smfNHyqYCCEAyG5MiwfdAFWYK/ohSbFjfkRPTO0xfR9sk5RIZYq2H2PeT4mZuvRcvN16j5v0ooGMEAsLU7glfPnEdEUTJVlJXCGutqEKyrRrBuJnyVpRnJfjV8AV29g+i8MKgQqyfSzPfLMtA4txr775lcMzmZKCjBUEjeeea8kE82U17j7GrtWFkQNRwf1WZvmp6HM8nKPjinCvu//dUlF04QDACdfQN4/MPjwj7ZkK6mMeQJKpZ+X3BuNfZ/6wYlw1cXjhCMHHyyzpRDbN51pvMFZ1dh/7duVD701UZeHR1W8JWXYf+Km9FcP0cdI+b7rPm+a3XPL/DFLfRlSGMeLUuuu0ouA8cUzIKY7G5EEiOa+kyUl0mR4E2yomyyJ8r2VZbh5WXzEJxjPVX3q4YJIZjibz/8P4T6LmsLuFgQqktX08xN9cvL5uNh//T4Y8xCY0IJpth6PIqdPecVos0I5nwyDaIgqT652TcHwboqNF8l1hKTQjBFZ98lhPouofPiAKKJMYTjI0SvGZo9D3tnIzB7JhpnV2dsL1+FHpNKsBkiiVHiqwH4KsjA/FUyc8eUI/gqCov/B90y47ZeZ8BfAAAAAElFTkSuQmCC;" vertex="1" parent="1">
          <mxGeometry x="67" y="148" width="68" height="61" as="geometry" />
        </mxCell>
        <mxCell id="X6fI_ib9up5Lk2iyJdlD-3" value="App Connect Designer" style="shape=image;html=1;verticalLabelPosition=bottom;verticalAlign=top;imageAspect=1;aspect=fixed;image=data:image/png,iVBORw0KGgoAAAANSUhEUgAAAHgAAABsCAYAAAChI3ZfAAAAAXNSR0IArs4c6QAAAARnQU1BAACxjwv8YQUAAAAJcEhZcwAADsMAAA7DAcdvqGQAABcpSURBVHhe7V17cBvHff6OAN8iRUKU5AcJQC9biSU7sS3LsgBKnsS1JM+4qRvZE5Ee23+0lt3GqZuZTERnIrGNKE87GsWexI/2DzOx6FSWp0mno0eiJlII2pL8rOVnRT0AiLIsSgQpkQBfAK5/7O3d3t7hbvE4kqL1YQ6HW2APuP32+/1++7iFJMuyjKuYtijiE65ieuEqwdMcVwme5rhK8DTHVYKnOa4SPM0hfdWaSdH+NJ8Eb+30refTjuCOD0YQHUgj2p9CtD+FyICMaCwFQALYK5Ulbk+I9tW64K0tgrfWhcB8F3yeoiu6AlzRBIfCY4gOpNAVHkcoPI5oP0skQ6jhWIIEQJYBCRJkAJJM9/Ts+s8HFrix4bZiBBe44PVcOYRfcQR3fDiMUHgMXZExRPpThCAZOsLMCCV7Jd2QpqRn+rx6flIxAvPd8HmK8L3bi+HzSFOa8CuC4FBkFK8dG0YoMqb5UAMxmRSrTzdTLD3Wn8/6PPTY63Gh6XY3NixzT0mipzTBHccS6DiWQCg8al7Q0NSmEsaaXp2iBQhjzqe9Z048e35qQQILXNh0bym8U0jVU5LgjmNxbOsaRGQgJUYYeGKMJtb0M0y67nvYCqOWjt15tPcDC1zYsKwYTXe4lQyThylFcCg6io17YogOJE0LLjOhrIJz9cncZ6w+z52fVzL9fGChC5vuLUFgoYuedMIxJQiOXkpi474YQpFRpeA4RXEFJ0SGScXwznRx+QiisTSjXPK2pmB6Pv57jefPlB5Y6MKL3yOme6Ix6QRv3NuHjo+HzEmyKTh1r6aRvE3fKEfQVwIACPrJ3ltjraJofxqR/hQAoOt0El2nkoj0pxCNKSdWS8n895gpWbUgIL9r05oSbLjDPaFETxrBoTMj2Li/TzHHyFhw9FhfcHqFN91cjoCvFEFfiS2RuSB0KonfvDeGzlNJnInRnrAcKiSAwAI3XtxQMmEkTwrB2w4PoO3NAcjI3QQ23VyBlmC1I4RaIXSKqLvj3TFEY2mmAhornsG1MK9f2FCK4EKX40RPKMHRy0ls/P0FhM6MGms/+zqDYjcsrUTT0goEvaVanklE16kkth0YRTSWRrRfcd4wr5C6dJBrDSx0Oa7mCSM41DOMta+fIwd8TQcNbiTTZknTkhloCVTDO3Pymx1miPanse3AKEInkqQjxs4nK0TLAHy1EvZ8v9wxkieE4FDPMNa9cS5zjdbVbPqehJaVM9G0pHLKEssj2p/GswdGETqRUom2VDJz3R/91BmSHSc41DOMtW98QQ6YC9PVbOibJcGGMmxaORPBhjLubFcGQieTCtFJUyWbuyUJL2woQdPywlZmRwnu+OwyNh64kLnmqt+svX7p3jo0LZlB37ii0fHuOJ79A/HRptfNKJgSvWlNMX68ppieIm84RvDOzy5j44Hz1hemHktobCjD3gevVfNPF0T703jiP4bRdTJlULLqk8EqGdi0tqRgJDtCcOjsMNb9toe7oEwES2i5sxabVtTozjHd8OyBUXS8M046TgwVXDmGRvQL3yuMuS44waGzCaz9bY/5BTB7WoP3rb8Owfpy3TmmK0Ink3hy1wgifUrXqJVPhlSQwKugBEcGx7Hk16chQ2+KWPNDCfZWu7Hvr6+Htzr/WiqCcE8M4TN9CPfEEOmJAQB89R746z3wN8yCv97DZ3EE0f407nsxIaRkr0fCnr8vy4vkghEcGRzHTb8+aTA1+h9NXvuqivHJYz6a1TGEe2L41e6jaN99BGGF1Ezw13vw6Po78cj65Y6THY2lcd9LCYOS9a6sMO3kghG89r/OIHQ2oSUw4T9AOzKAxusrsPeB67XPOQBK7JYde/m3bEGJ3vz0Wv6tgmNp25C1kpV9Pj1eBSG47d2LaHvnovYDdT9W8ynB68qx74F6+iFHcOhwN+5+6Hk+OWtMFNFL24YMSjbzyZvW5BZZ5z2vJDI4jrZ3L5BfJgGQJEAiO3bvqy52nNzWHfsKQi4UK9C++whad+zj3yoo9jxRAd+sIqasSPlRr0Zfb9uvROBZIm+C1/13GDJkALK6h6y8Vva+Kjf2fsdZs9y6Y19OJtkK4Z4YtuzY6yjJ3toi7NlYAa9HMpSjWp7Kdt8vhrMmOS+C2967gMhQEhKnWk3JJP2lb10DX3X25kUUhw53F5xcFo6T7CnCiw+VGZRMyxUgZRrtl/Ha23T8XAw5ExwZHMfW93qZGkahr3Uty+oQvL6Ceb+wCPfECmaWrdC++wgOHe7mkwuGwAI3NtxenEHBUMtz2/6xrFScc5C1dk8YoS/iTEBljAKD11Zg3196dfkKjbsfel644P31HqxesQj++lnw1Xvw5yPdCPfEhPM/un45XtnezCcXFPe9lEDXCetJh4GFLuz5O7GBmJwIDp2LY82e07ofwLfn/FUl+KRpIZ+1oBCNmP31HryyvRmrVyzi3wIAtO8+itYde23bygBwcNdTGc9TCET701j3YhxnYnLmvmsZ+OinlULNppxM9MbOs5AUH0FdLeuDJUlC02Ln+5Z/9cZRPsmAR9cvx+m3Wi1JeXT9chx8/QfY8vQ6/i0DWn/unC+GEnQ1LyvhypPzyRLwxG9G+aymyJrgtg96ER4aVX0E9RSazwAC11Wg5bY6LmfhYWdaqXJF4K/34JH1yy0rAgCEz/TxSQXHj+8phbfWKqoGuk4k0fH2OJ/VgKwJ7uju19UsqmK2xr28+jo+W8HRvvuorUkVJZfCX+/B5n+w7tjIxmfngz1PVMLncZkqmar4tXfsI+qsCI4MjSE8NErqktLGVffKo+W22fBVOdckoqADBpnwqIAazbB6xSLbfH8+coJPKji8tUXYsKxYLVczJYcEVJwVwW3/e16nWv1GfETLrbP5bI4g3GNtKlfdaU2SFVbnkbeQ2HRPKXyeIkM/A+uTX3vXWsXCBEeGxrDzRIypQ/oHIE8YuU5j1Z3W0f+hI86baIoNt5cwyoVByV0nksqUIHMIE9xxsh+gLoBRLD2GBLTcOofP5hjs/G8+Q37+hll8kg75nDtbNN1eDJ+nSFEs31ohhFj5YmGCd57o07Rr4n9bvjlx5MLhQp6IIEoU3toiBBa41HKmD50vPpknwZGhMUTiYya1R6tFTYucb/ey8NdbqyyfQOjPNibY7rsLjabbSxjLSawny0HXyVRGMy1EcMdJzRySWkP35Nk3oxi+GeQuvomCnZ9s332ETxKGnYJ9DloPMwTmu9GgtIu1UtcrOVOwJUTw1mPnGMXqa48kAc2LavksjsPOT4Z7Ynjshzv5ZFs89sOdtv7drhnlBJo5FYPp2ZIkYNsfzHu2bAmODI0Zagu/b/nGXD6b46ADB1Y4dLjbVo0sDh3uRvtu6+7PRydgzpYZVs53K6Vt/gBkUzNtS3DH6T6l2hDF0o0q2F81saaZxSPfXc4n6UBVLDKWKzobJJ/2dT4IznfD63GR4tf5Y82qhk6SG9hZ2BJMQGoI+5oeNS2cePNMIdLrRGdlzLtrM9p3H9UpmkzLOYq7H3peaMIAmadlXamcRNNtJZAlqldWu+S565TRD9sOF1a+9r7CrX5ckg5j7f+LhQheM3n3EokOGbLw13ts/awZnB4qtEPXqSTu+/chvdZUXiQE5ruxZ6N+coWlgiPxUW1+FVNf2NeTSS4UFYsM87HIhVwRa+E0AvPdaKhRommTvojQyXHDYquWBEcztH2pT/ZNov9lITLMlw9Wr1iEg7ue4pMnBRoXhBDeH/OdHpYEd/YOMv6XblBfNy+Y+GjSDP56j23AlQ+cPHe2CMx3EwsqKZaU88k8LAmWwIZs+ihak/PUQKtAkJQrnDx3tgjMdxMFQ1Ey9Cp+87Q+krYkuPP8Za1mcHOdARmBuZV8lklB6459OflVUeTaaeIEvDVFuhhIfTC+mIUlwdTv6u2+dtw4t4rPMeGgzSCnkW2niVPw1ZLV+iTFeOq5kQydHZYEd164zNQW8kpbBsdo7ycDIsqi013ZWR5+5dbRLU+vUzcrhHtijk+4E4G3tghQ/C4khRNoPjkyoDfRlu3gyl3vaAfc3YK+yhJ8ev9S7f0c8cHFYbiLJPQOJzEwmkK5uwgSgBnFRah0F6G21IWqEhcq3BLKXEUoYtx+++6jtgT76z04/VYrn2wANcN2KqUVZTKxZHs/mVYL7a5Ndr3rS9u0kT1LBRvsO2vnM1YLe3SeG0L78Rh+9v55/Gd4AHujl/HZwAgGx1OIj+tNzHhaxmgqjfG0jDRXF0WCH9GJdyIT7iD4nY5DVpTLxUWUIxYZCY7ERw1tLHbLJYD+fc9l/OS9c3j584s43BtHbCzJRIOaz1dh8R0igVW2E+9Wr1hkq86pEHD5ask9TNrG+WQGGQmGLlbTH8mQ4a0U7+Q4mxjHk2+dwb9+dB4fxchN4rwn1/b2pkE0sNps41fNIJJnagRcGjPEJ5PbH/jysyRYr1j9+KOVulg892kv7v19Nz6IJZhoT8uu1jx6zB5kgIiCtjy9LqdhPZHJ8pMdcEUG0noFgylXUQX7Kks1u84/ZBnRuPkAM4v7/3QCOz790qB+qErVH5FX2rMZRNTjr/fkdWe+SL+zyNixc6Dq1TYZbB+FhowEA6R28L6XbIwETRCJj2HNH7tx+MKQ6iN0NY6xAgYl20hYRL12CrTDlA+41DI1litfdJYEm6uY1JdIfIT/uIrHj4QROk/a0AS0plGwitVrWHuWUerS/9p//rl9YCWiPhFM5YCLLKLOKhgmZUxgSTDUimIctYAkkeFEDmv+eByh3kFjrVIlquzUvYSlnnJ8+7oqfHdeDdbPq8HahmoEr52Bm2rLcENNKerK3Pjy3AD+ScDv5ateFlM24OLLlTn2cX/nY0Mwr179g8fWj79AZy/pv+bbaHqNkrR766vxj0vmYF1DNRbXlGFGsfnPKXVJ2PijDj7ZgFwDq0yYigFXdCDFlCerYraMNZiXqILGOdWGyJlVMRtohXoH0fbxWUbhili5vADwtZpy/NtdPtx7fTVqSuyX5BdRSb6BVSaImPyJDLgiAykDJ6yafdwfaVoSDLVO6OsF6RWTEU5oBD/+zmnlS5TPKmSqe+U8W2+9Hj+5JbtVZUX8nJ3SckW2AVe4J6ZuTiA6kOL4oItrkbIPzNPf2WlJcKCumrygDWjaoIYMWQK6LgwCALZ+chbh+AhjNPQmhBqO7csasKQmu4VHRXqsVq1YhJXLF2I8LVtuvPkShWjAJXm/j3l3bVY3eixyDaKIXuJNNHQmmoclwb7KUiYYIk+qiQYQURTc9qlmmjUTre8YeWG5H7fUZrfajmiPVfv2ZqRkIJFMW27DSeO8YVGIBFxmoNdw94PPCU3ftUNXZDyDiSYJAX8WCm6sm6nTpK5TGzI6L1zC4++c0qUZH8CTN87BrZ7syIWgaaaBVZlLwkhSRnw8zW2yug2MppEyVnIhiARcVqBEz7trc15q7gyTG/B1FlLW9sFsTDQUFbOOXK9oIHTxMknXKpFua6gowZM3ZHfnQ1iZr5xtYOUpc2EsLSORZDe9ii+NGieHi0Ik4LJDuCeGux98zvbazBAdSDEW0rgnkwH0sCW4sa5aZ+NlMD4ZMsLxEZKuTM/VdEv2671izRbaaUD9loh6eUUVF0kodxchnkxrG6fo/jwILlQTjF5rLkretGoGAv5ieGtcisdVOIExwAJsBvwB4NVoLx5//wQkYqHJhHeQAWayVz7IDDhTX39jVTneX2M/KSCXdSYzTWUdTcn4pH8EY7wtVg8lfHN2maGXTAS5TLK3QqZrEAX5J/RxdIXHEBlIoemWcmxarZ8nZ0swAFT87k3yQpOvjkj1GAzRMrBlaQN+9DXrFXdyIRcATr/VmlFR718cJkrNcGVfry3DtZXZrzSfzap6onD6bglbEw0TP2y28b5ZkoCVs60n5YlGyTzseqxml7n1ZjqZRjwpq9uXw8Z7eOwgEhOAuetRlDSne8GECG72ssszEP+qbVTMxnbyyjprgkX8rBnsVtgpdUlIjPPNpBTZxlPoH8neD9vd9Q+l4p1+qxUHdz2Fg7uesrQyFE4vrCZEcHDWTE6x3IIgqnK1drK/0v4PJEUUYQa7fHPK3SiSYFTwOFHwxZHsFWz3na9sbzZ0lfrrPTj4+g90aTzCDi+sJkRwY91M+CrI0CFVrqEtBhKF0Ye3wnpKTz59tyJdgYkUH0mnEE+mEFcUnS3svi9TTxc12ZMFIYKhmGmqUt7/mvlin42C7Vaqs4OdaRtJGdvAdPsykZ2C7ci1I9BuYTW78+cDYYKfucELX0Wp3vcCBp8sQyFb9xkj7BZRsYPdGh2JZFpVLGumE8k0BAawsoJdZbOLGZyEMMFQTDWvWFOfLAGR4TE+uw52BNnBLng5mxjTVJtKI6EoOp5MYzhpXfl42H2XnR+1c0d2588HWRHc1DDH1P8a0mTST20Fv3LrSC7I5O8o+kaSjGpTxP+qPjiFRCp7H2xnhs16psKCfzdgd+58kBXBjbNq8HDDXE6tmX0yHW3KBL6rURR2IzsXRpIYTqYxnEpjOCUrGxlNGk6mMS+HG9dF/OjdDz6nLvrSumMf5t212VLZEKis+SIrggGgqYEOHOh9rwYtbWekl0k3QmSclccr25ttlX+sf1ivYJ0fTqO6JOvLxiMCv5MOkmzZsVe4A8fpm8uzvtLGWTPhqywzqNXMJ4cuXuazG7BZ4M4+ii1PrxOqEK9096nNpERSVptGxBensbhW7A8tWPgdWGEnmx6vXJE1wQDw8i3kRxHdZvbJnRcH8GrUWsV0yO/grqcyKtOv3CHIdySYob27DwnF7+r2ylZVXISbPdkTDKUyZvqNuUBkKlC+EBpsMMPW41FsPR5hrLP5IERjXQ32B25S89mBRqSRnhhW3bkwqxr+RWIc9//xBPcbJEAxLLIs4fHFs/A3i3OP4MM9Mcy7azOfnDWcHmSgyJlgAFj8p7cRTYzqCDUj+pnFXjyzuEHL6BB++XkvfvnZBXKg+4NHqL+nfZUPd8zOfnYJCxpQ8VGzKCbyHuOcTDTFww1zTfyvcdv6+RnbiDpf7I70418+/hLxVBpxxdfGU8T30uPaMlfe5ILpYxaNHSj89R4c3PXUhJGLfBUMAFuPR/Cz4xHtTnP1j5z0f5fqqyjF/sBSpTessHizdwjfOdit++Mo1oIA5Df87tsLsLLAC8eEe2Jo3bHXsjODxBliAWKhkTfBAPC1P72tKdTCJ/vKC09yqHcQa/7nODnI4CIAiSw58cDX1XyFRpj5C3mKyR5oQKEIjgyPYM3hYwgnRhgFZS7wl29dpI5Q5YOtH3+Bto++MLUYAPP9AD79q5smfNHyqYCCEAyG5MiwfdAFWYK/ohSbFjfkRPTO0xfR9sk5RIZYq2H2PeT4mZuvRcvN16j5v0ooGMEAsLU7glfPnEdEUTJVlJXCGutqEKyrRrBuJnyVpRnJfjV8AV29g+i8MKgQqyfSzPfLMtA4txr775lcMzmZKCjBUEjeeea8kE82U17j7GrtWFkQNRwf1WZvmp6HM8nKPjinCvu//dUlF04QDACdfQN4/MPjwj7ZkK6mMeQJKpZ+X3BuNfZ/6wYlw1cXjhCMHHyyzpRDbN51pvMFZ1dh/7duVD701UZeHR1W8JWXYf+Km9FcP0cdI+b7rPm+a3XPL/DFLfRlSGMeLUuuu0ouA8cUzIKY7G5EEiOa+kyUl0mR4E2yomyyJ8r2VZbh5WXzEJxjPVX3q4YJIZjibz/8P4T6LmsLuFgQqktX08xN9cvL5uNh//T4Y8xCY0IJpth6PIqdPecVos0I5nwyDaIgqT652TcHwboqNF8l1hKTQjBFZ98lhPouofPiAKKJMYTjI0SvGZo9D3tnIzB7JhpnV2dsL1+FHpNKsBkiiVHiqwH4KsjA/FUyc8eUI/gqCov/B90y47ZeZ8BfAAAAAElFTkSuQmCC;" vertex="1" parent="1">
          <mxGeometry x="450" y="154" width="68" height="61" as="geometry" />
        </mxCell>
      </root>
    </mxGraphModel>
  </diagram>
</mxfile>
